#N canvas 392 267 240 405 12;
#X floatatom 35 311 5 0 0 0 - - -;
#X obj 35 47 adc~;
#X obj 35 117 *~ 1;
#X obj 35 214 bng 15 250 50 0 empty empty empty 17 7 0 10 -262144 -1
-1;
#X obj 71 116 number~;
#X obj 35 341 s b;
#X floatatom 64 83 5 0 0 0 - - -;
#X obj 63 149 s~ a;
#X msg 79 47 50;
#N canvas 687 96 855 770 b2i 0;
#X obj 318 150 tgl 15 0 empty empty empty 17 7 0 10 -262144 -1 -1 1
1;
#X obj 318 171 gate;
#X obj 318 125 == 0;
#X obj 446 190 tgl 15 0 empty empty empty 17 7 0 10 -262144 -1 -1 0
1;
#X obj 446 220 metro;
#X obj 446 250 bng 15 250 50 0 empty empty empty 17 7 0 10 -262144
-1 -1;
#X obj 446 281 counter 1 10;
#X floatatom 446 314 5 0 0 0 - - -;
#X obj 535 378 sel 10;
#X floatatom 525 107 5 0 0 0 - - -;
#X obj 525 130 t b f;
#X msg 525 154 1000;
#X obj 525 178 /;
#X floatatom 525 202 5 0 0 0 - - -;
#X obj 343 93 bng 15 250 50 0 empty empty empty 17 7 0 10 -262144 -1
-1;
#X obj 535 413 bng 15 250 50 0 empty empty empty 17 7 0 10 -262144
-1 -1;
#X msg 350 378 0;
#X obj 535 433 t b b b b b b b b;
#X obj 384 488 f;
#X obj 418 489 f;
#X obj 452 489 f;
#X obj 486 489 f;
#X obj 520 488 f;
#X obj 554 488 f;
#X obj 588 488 f;
#X obj 622 489 f;
#X obj 384 461 << 0;
#X obj 418 461 << 1;
#X obj 452 461 << 2;
#X obj 486 461 << 3;
#X obj 520 461 << 4;
#X obj 554 461 << 5;
#X obj 588 461 << 6;
#X obj 622 461 << 7;
#X obj 384 413 bng 15 250 50 0 empty empty empty 17 7 0 10 -262144
-1 -1;
#X obj 401 413 bng 15 250 50 0 empty empty empty 17 7 0 10 -262144
-1 -1;
#X obj 418 413 bng 15 250 50 0 empty empty empty 17 7 0 10 -262144
-1 -1;
#X obj 435 413 bng 15 250 50 0 empty empty empty 17 7 0 10 -262144
-1 -1;
#X obj 452 413 bng 15 250 50 0 empty empty empty 17 7 0 10 -262144
-1 -1;
#X obj 469 413 bng 15 250 50 0 empty empty empty 17 7 0 10 -262144
-1 -1;
#X obj 486 413 bng 15 250 50 0 empty empty empty 17 7 0 10 -262144
-1 -1;
#X obj 503 413 bng 15 250 50 0 empty empty empty 17 7 0 10 -262144
-1 -1;
#X obj 384 378 gate 9, f 20;
#X obj 384 514 expr ($i1+$i2+$i3+$i4+$i5+$i6+$i7+$i8);
#X obj 384 332 pipe;
#X obj 392 357 bng 15 250 50 0 empty empty empty 17 7 0 10 -262144
-1 -1;
#X obj 409 309 / 2;
#X msg 525 62 12;
#X obj 525 37 loadbang;
#X obj 343 40 inlet;
#X obj 384 552 outlet;
#X obj 384 436 tgl 15 0 empty empty empty 17 7 0 10 -262144 -1 -1 1
1;
#X obj 401 436 tgl 15 0 empty empty empty 17 7 0 10 -262144 -1 -1 1
1;
#X obj 418 436 tgl 15 0 empty empty empty 17 7 0 10 -262144 -1 -1 1
1;
#X obj 435 436 tgl 15 0 empty empty empty 17 7 0 10 -262144 -1 -1 0
1;
#X obj 452 436 tgl 15 0 empty empty empty 17 7 0 10 -262144 -1 -1 1
1;
#X obj 469 436 tgl 15 0 empty empty empty 17 7 0 10 -262144 -1 -1 1
1;
#X obj 486 436 tgl 15 0 empty empty empty 17 7 0 10 -262144 -1 -1 1
1;
#X obj 503 436 tgl 15 0 empty empty empty 17 7 0 10 -262144 -1 -1 0
1;
#X obj 45 401 tgl 15 0 empty empty empty 17 7 0 10 -262144 -1 -1 0
1;
#X obj 45 422 gate;
#X obj 45 376 == 0;
#X obj 181 356 tgl 15 0 empty empty empty 17 7 0 10 -262144 -1 -1 1
1;
#X obj 79 401 tgl 15 0 empty empty empty 17 7 0 10 -262144 -1 -1 0
1;
#X obj 79 422 gate;
#X obj 79 376 == 0;
#X obj 113 401 tgl 15 0 empty empty empty 17 7 0 10 -262144 -1 -1 0
1;
#X obj 113 422 gate;
#X obj 113 376 == 0;
#X obj 147 401 tgl 15 0 empty empty empty 17 7 0 10 -262144 -1 -1 1
1;
#X obj 147 422 gate;
#X obj 147 376 == 0;
#X obj 181 401 tgl 15 0 empty empty empty 17 7 0 10 -262144 -1 -1 0
1;
#X obj 181 422 gate;
#X obj 181 376 == 0;
#X obj 215 401 tgl 15 0 empty empty empty 17 7 0 10 -262144 -1 -1 0
1;
#X obj 215 422 gate;
#X obj 215 376 == 0;
#X obj 249 401 tgl 15 0 empty empty empty 17 7 0 10 -262144 -1 -1 0
1;
#X obj 249 422 gate;
#X obj 249 376 == 0;
#X obj 283 401 tgl 15 0 empty empty empty 17 7 0 10 -262144 -1 -1 1
1;
#X obj 283 422 gate;
#X obj 283 376 == 0;
#X obj 198 356 tgl 15 0 empty empty empty 17 7 0 10 -262144 -1 -1 1
1;
#X obj 215 356 tgl 15 0 empty empty empty 17 7 0 10 -262144 -1 -1 1
1;
#X obj 232 356 tgl 15 0 empty empty empty 17 7 0 10 -262144 -1 -1 0
1;
#X obj 249 356 tgl 15 0 empty empty empty 17 7 0 10 -262144 -1 -1 1
1;
#X obj 266 356 tgl 15 0 empty empty empty 17 7 0 10 -262144 -1 -1 1
1;
#X obj 283 356 tgl 15 0 empty empty empty 17 7 0 10 -262144 -1 -1 1
1;
#X obj 300 356 tgl 15 0 empty empty empty 17 7 0 10 -262144 -1 -1 0
1;
#X msg 318 326 0;
#X obj 318 195 t b b;
#X connect 0 0 1 0;
#X connect 1 0 3 0;
#X connect 1 0 92 0;
#X connect 2 0 0 0;
#X connect 3 0 4 0;
#X connect 3 0 2 0;
#X connect 4 0 5 0;
#X connect 5 0 6 0;
#X connect 6 0 7 0;
#X connect 7 0 8 0;
#X connect 7 0 44 0;
#X connect 8 0 3 0;
#X connect 8 0 15 0;
#X connect 9 0 10 0;
#X connect 10 0 11 0;
#X connect 10 1 12 1;
#X connect 11 0 12 0;
#X connect 12 0 13 0;
#X connect 13 0 4 1;
#X connect 13 0 46 0;
#X connect 14 0 1 1;
#X connect 14 0 42 1;
#X connect 15 0 17 0;
#X connect 16 0 51 0;
#X connect 16 0 52 0;
#X connect 16 0 53 0;
#X connect 16 0 54 0;
#X connect 16 0 55 0;
#X connect 16 0 56 0;
#X connect 16 0 57 0;
#X connect 16 0 58 0;
#X connect 17 0 18 0;
#X connect 17 1 19 0;
#X connect 17 2 20 0;
#X connect 17 3 21 0;
#X connect 17 4 22 0;
#X connect 17 5 23 0;
#X connect 17 6 24 0;
#X connect 17 7 25 0;
#X connect 18 0 43 0;
#X connect 19 0 43 1;
#X connect 20 0 43 2;
#X connect 21 0 43 3;
#X connect 22 0 43 4;
#X connect 23 0 43 5;
#X connect 24 0 43 6;
#X connect 25 0 43 7;
#X connect 26 0 18 1;
#X connect 27 0 19 1;
#X connect 28 0 20 1;
#X connect 29 0 21 1;
#X connect 30 0 22 1;
#X connect 31 0 23 1;
#X connect 32 0 24 1;
#X connect 33 0 25 1;
#X connect 34 0 60 1;
#X connect 35 0 64 1;
#X connect 36 0 67 1;
#X connect 37 0 70 1;
#X connect 38 0 73 1;
#X connect 39 0 76 1;
#X connect 40 0 79 1;
#X connect 41 0 82 1;
#X connect 42 0 34 0;
#X connect 42 1 35 0;
#X connect 42 2 36 0;
#X connect 42 3 37 0;
#X connect 42 4 38 0;
#X connect 42 5 39 0;
#X connect 42 6 40 0;
#X connect 42 7 41 0;
#X connect 43 0 50 0;
#X connect 44 0 45 0;
#X connect 44 0 42 0;
#X connect 46 0 44 1;
#X connect 47 0 9 0;
#X connect 48 0 47 0;
#X connect 48 0 0 0;
#X connect 49 0 14 0;
#X connect 51 0 26 0;
#X connect 52 0 27 0;
#X connect 53 0 28 0;
#X connect 54 0 29 0;
#X connect 55 0 30 0;
#X connect 56 0 31 0;
#X connect 57 0 32 0;
#X connect 58 0 33 0;
#X connect 59 0 60 0;
#X connect 60 0 62 0;
#X connect 60 0 51 0;
#X connect 61 0 59 0;
#X connect 62 0 61 0;
#X connect 63 0 64 0;
#X connect 64 0 52 0;
#X connect 64 0 84 0;
#X connect 65 0 63 0;
#X connect 66 0 67 0;
#X connect 67 0 53 0;
#X connect 67 0 85 0;
#X connect 68 0 66 0;
#X connect 69 0 70 0;
#X connect 70 0 54 0;
#X connect 70 0 86 0;
#X connect 71 0 69 0;
#X connect 72 0 73 0;
#X connect 73 0 55 0;
#X connect 73 0 87 0;
#X connect 74 0 72 0;
#X connect 75 0 76 0;
#X connect 76 0 56 0;
#X connect 76 0 88 0;
#X connect 77 0 75 0;
#X connect 78 0 79 0;
#X connect 79 0 57 0;
#X connect 79 0 89 0;
#X connect 80 0 78 0;
#X connect 81 0 82 0;
#X connect 82 0 58 0;
#X connect 82 0 90 0;
#X connect 83 0 81 0;
#X connect 84 0 65 0;
#X connect 85 0 68 0;
#X connect 86 0 71 0;
#X connect 87 0 74 0;
#X connect 88 0 77 0;
#X connect 89 0 80 0;
#X connect 90 0 83 0;
#X connect 91 0 62 0;
#X connect 91 0 84 0;
#X connect 91 0 85 0;
#X connect 91 0 86 0;
#X connect 91 0 87 0;
#X connect 91 0 88 0;
#X connect 91 0 89 0;
#X connect 91 0 90 0;
#X connect 92 0 91 0;
#X connect 92 1 16 0;
#X coords 0 -1 1 1 145 45 1 380 410;
#X restore 35 241 pd b2i;
#N canvas 689 191 159 183 attack 0;
#X obj 17 106 edge~;
#X obj 17 56 average~ 256 rms;
#X obj 17 81 thresh~ 0.09 0.1;
#X obj 17 23 inlet~;
#X obj 17 136 outlet;
#X connect 0 0 4 0;
#X connect 1 0 2 0;
#X connect 2 0 0 0;
#X connect 3 0 1 0;
#X restore 35 178 pd attack;
#X obj 135 20 loadbang;
#X obj 65 341 print;
#X obj 148 155 max;
#X floatatom 148 187 5 0 0 0 - - -;
#X msg 178 155 0;
#X msg 135 53 \; pd dsp 1;
#X connect 0 0 5 0;
#X connect 0 0 12 0;
#X connect 1 0 2 0;
#X connect 2 0 4 0;
#X connect 2 0 7 0;
#X connect 2 0 10 0;
#X connect 3 0 9 0;
#X connect 3 0 15 0;
#X connect 4 1 13 0;
#X connect 6 0 2 1;
#X connect 8 0 6 0;
#X connect 9 0 0 0;
#X connect 10 0 3 0;
#X connect 11 0 8 0;
#X connect 11 0 16 0;
#X connect 13 0 14 0;
#X connect 14 0 13 1;
#X connect 15 0 14 0;
