#N canvas 337 115 533 661 12;
#X obj 35 182 edge~;
#X obj 196 136 tgl 15 0 empty empty empty 17 7 0 10 -262144 -1 -1 1
1;
#X obj 196 157 gate;
#X obj 196 111 == 0;
#X obj 292 176 tgl 15 0 empty empty empty 17 7 0 10 -262144 -1 -1 0
1;
#X obj 292 206 metro;
#X obj 292 236 bng 15 250 50 0 empty empty empty 17 7 0 10 -262144
-1 -1;
#X obj 292 267 counter 1 10;
#X floatatom 292 300 5 0 0 0 - - -;
#X obj 381 364 sel 10;
#X floatatom 371 93 5 0 0 0 - - -;
#X obj 371 116 t b f;
#X msg 371 140 1000;
#X obj 371 164 /;
#X floatatom 371 188 5 0 0 0 - - -;
#X obj 221 79 bng 15 250 50 0 empty empty empty 17 7 0 10 -262144 -1
-1;
#X obj 381 399 bng 15 250 50 0 empty empty empty 17 7 0 10 -262144
-1 -1;
#X msg 196 364 0;
#X obj 381 419 t b b b b b b b b;
#X obj 230 487 f;
#X obj 264 488 f;
#X obj 298 488 f;
#X obj 332 488 f;
#X obj 366 487 f;
#X obj 400 487 f;
#X obj 434 487 f;
#X obj 468 488 f;
#X obj 230 460 << 0;
#X obj 264 460 << 1;
#X obj 298 460 << 2;
#X obj 332 460 << 3;
#X obj 366 460 << 4;
#X obj 400 460 << 5;
#X obj 434 460 << 6;
#X obj 468 460 << 7;
#X obj 230 420 tgl 15 0 empty empty empty 17 7 0 10 -262144 -1 -1 0
1;
#X obj 247 420 tgl 15 0 empty empty empty 17 7 0 10 -262144 -1 -1 0
1;
#X obj 264 420 tgl 15 0 empty empty empty 17 7 0 10 -262144 -1 -1 0
1;
#X obj 281 420 tgl 15 0 empty empty empty 17 7 0 10 -262144 -1 -1 0
1;
#X obj 298 420 tgl 15 0 empty empty empty 17 7 0 10 -262144 -1 -1 0
1;
#X obj 315 420 tgl 15 0 empty empty empty 17 7 0 10 -262144 -1 -1 0
1;
#X obj 332 420 tgl 15 0 empty empty empty 17 7 0 10 -262144 -1 -1 0
1;
#X obj 349 420 tgl 15 0 empty empty empty 17 7 0 10 -262144 -1 -1 0
1;
#X obj 230 399 bng 15 250 50 0 empty empty empty 17 7 0 10 -262144
-1 -1;
#X obj 247 399 bng 15 250 50 0 empty empty empty 17 7 0 10 -262144
-1 -1;
#X obj 264 399 bng 15 250 50 0 empty empty empty 17 7 0 10 -262144
-1 -1;
#X obj 281 399 bng 15 250 50 0 empty empty empty 17 7 0 10 -262144
-1 -1;
#X obj 298 399 bng 15 250 50 0 empty empty empty 17 7 0 10 -262144
-1 -1;
#X obj 315 399 bng 15 250 50 0 empty empty empty 17 7 0 10 -262144
-1 -1;
#X obj 332 399 bng 15 250 50 0 empty empty empty 17 7 0 10 -262144
-1 -1;
#X obj 349 399 bng 15 250 50 0 empty empty empty 17 7 0 10 -262144
-1 -1;
#X obj 230 364 gate 9, f 20;
#X obj 230 513 expr ($i1+$i2+$i3+$i4+$i5+$i6+$i7+$i8);
#X floatatom 230 539 5 0 0 0 - - -;
#X obj 230 318 pipe;
#X obj 238 343 bng 15 250 50 0 empty empty empty 17 7 0 10 -262144
-1 -1;
#X obj 255 295 / 2;
#X msg 371 48 12;
#X obj 371 23 loadbang;
#X obj 35 35 adc~;
#X obj 35 107 *~ 1;
#X obj 35 132 average~ 512 rms;
#X obj 35 208 bng 15 250 50 0 empty empty empty 17 7 0 10 -262144 -1
-1;
#X obj 45 73 dac~;
#X obj 90 36 number~;
#X obj 35 157 thresh~ 0.01 0.1;
#X obj 230 562 s b;
#X connect 0 0 62 0;
#X connect 1 0 2 0;
#X connect 2 0 4 0;
#X connect 2 0 17 0;
#X connect 3 0 1 0;
#X connect 4 0 5 0;
#X connect 4 0 3 0;
#X connect 5 0 6 0;
#X connect 6 0 7 0;
#X connect 7 0 8 0;
#X connect 8 0 9 0;
#X connect 8 0 54 0;
#X connect 9 0 4 0;
#X connect 9 0 16 0;
#X connect 10 0 11 0;
#X connect 11 0 12 0;
#X connect 11 1 13 1;
#X connect 12 0 13 0;
#X connect 13 0 14 0;
#X connect 14 0 5 1;
#X connect 14 0 56 0;
#X connect 15 0 2 1;
#X connect 15 0 51 1;
#X connect 16 0 18 0;
#X connect 17 0 35 0;
#X connect 17 0 36 0;
#X connect 17 0 37 0;
#X connect 17 0 38 0;
#X connect 17 0 39 0;
#X connect 17 0 40 0;
#X connect 17 0 41 0;
#X connect 17 0 42 0;
#X connect 18 0 19 0;
#X connect 18 1 20 0;
#X connect 18 2 21 0;
#X connect 18 3 22 0;
#X connect 18 4 23 0;
#X connect 18 5 24 0;
#X connect 18 6 25 0;
#X connect 18 7 26 0;
#X connect 19 0 52 0;
#X connect 20 0 52 1;
#X connect 21 0 52 2;
#X connect 22 0 52 3;
#X connect 23 0 52 4;
#X connect 24 0 52 5;
#X connect 25 0 52 6;
#X connect 26 0 52 7;
#X connect 27 0 19 1;
#X connect 28 0 20 1;
#X connect 29 0 21 1;
#X connect 30 0 22 1;
#X connect 31 0 23 1;
#X connect 32 0 24 1;
#X connect 33 0 25 1;
#X connect 34 0 26 1;
#X connect 35 0 27 0;
#X connect 36 0 28 0;
#X connect 37 0 29 0;
#X connect 38 0 30 0;
#X connect 39 0 31 0;
#X connect 40 0 32 0;
#X connect 41 0 33 0;
#X connect 42 0 34 0;
#X connect 43 0 35 0;
#X connect 44 0 36 0;
#X connect 45 0 37 0;
#X connect 46 0 38 0;
#X connect 47 0 39 0;
#X connect 48 0 40 0;
#X connect 49 0 41 0;
#X connect 50 0 42 0;
#X connect 51 0 43 0;
#X connect 51 1 44 0;
#X connect 51 2 45 0;
#X connect 51 3 46 0;
#X connect 51 4 47 0;
#X connect 51 5 48 0;
#X connect 51 6 49 0;
#X connect 51 7 50 0;
#X connect 52 0 53 0;
#X connect 53 0 66 0;
#X connect 54 0 55 0;
#X connect 54 0 51 0;
#X connect 56 0 54 1;
#X connect 57 0 10 0;
#X connect 58 0 57 0;
#X connect 58 0 1 0;
#X connect 59 0 60 0;
#X connect 59 0 63 0;
#X connect 59 0 63 1;
#X connect 59 0 64 0;
#X connect 60 0 61 0;
#X connect 61 0 65 0;
#X connect 62 0 15 0;
#X connect 65 0 0 0;
