#N canvas 689 238 493 317 12;
#X obj 18 19 r b;
#X floatatom 18 43 5 0 0 0 - - -;
#X obj 112 157 comport;
#X msg 71 18 devices;
#X msg 71 45 open 6;
#X msg 71 72 baud 19200;
#X obj 16 91 key;
#X floatatom 16 115 5 0 0 0 - - -;
#X text 189 20 printmode;
#X obj 248 62 tgl 15 0 empty empty emphasize 17 7 0 10 -262144 -1 -1
0 1;
#X obj 248 81 tgl 15 0 empty empty deleteline 17 7 0 10 -262144 -1
-1 0 1;
#X obj 193 42 bng 15 250 50 0 empty empty apply 17 7 0 10 -262144 -1
-1;
#X obj 248 43 tgl 15 0 empty empty font_A/B 17 7 0 10 -262144 -1 -1
0 1;
#N canvas 48 283 450 332 charsetting 1;
#X obj 228 151 << 5;
#X obj 53 151 << 0;
#X obj 123 151 << 2;
#X obj 158 151 << 3;
#X obj 193 151 << 4;
#X obj 35 176 f;
#X obj 70 176 f;
#X obj 105 176 f;
#X obj 140 176 f;
#X obj 175 176 f;
#X obj 210 176 f;
#X floatatom 35 231 5 0 0 0 - - -;
#X obj 35 69 t b b b b b b b;
#X obj 245 176 f;
#X obj 263 151 << 6;
#X obj 35 207 expr ($i1+$i2+$i3+$i4+$i5+$i6+$i7);
#X msg 35 256 27 33 \$1;
#X obj 77 18 inlet;
#X obj 119 18 inlet;
#X obj 161 18 inlet;
#X obj 203 18 inlet;
#X obj 245 18 inlet;
#X obj 287 18 inlet;
#X obj 329 18 inlet;
#X obj 35 18 inlet;
#X obj 35 288 outlet;
#X obj 88 151 << 1;
#X connect 0 0 10 1;
#X connect 1 0 5 1;
#X connect 2 0 7 1;
#X connect 3 0 8 1;
#X connect 4 0 9 1;
#X connect 5 0 15 0;
#X connect 6 0 15 1;
#X connect 7 0 15 2;
#X connect 8 0 15 3;
#X connect 9 0 15 4;
#X connect 10 0 15 5;
#X connect 11 0 16 0;
#X connect 12 0 5 0;
#X connect 12 1 6 0;
#X connect 12 2 7 0;
#X connect 12 3 8 0;
#X connect 12 4 9 0;
#X connect 12 5 10 0;
#X connect 12 6 13 0;
#X connect 13 0 15 6;
#X connect 14 0 13 1;
#X connect 15 0 11 0;
#X connect 16 0 25 0;
#X connect 17 0 1 0;
#X connect 18 0 26 0;
#X connect 19 0 2 0;
#X connect 20 0 3 0;
#X connect 21 0 4 0;
#X connect 22 0 0 0;
#X connect 23 0 14 0;
#X connect 24 0 12 0;
#X connect 26 0 6 1;
#X restore 193 104 pd charsetting;
#X msg 286 218 27 123 \$1;
#X obj 286 198 tgl 15 0 empty empty upside-down 17 7 0 10 -262144 -1
-1 1 1;
#X obj 191 147 hradio 15 1 0 3 empty empty justification 0 -8 0 10
-262144 -1 -1 1;
#X msg 191 167 27 97 \$1;
#X obj 286 148 hradio 15 1 0 5 empty empty width 0 -8 0 10 -262144
-1 -1 2;
#X obj 366 148 hradio 15 1 0 5 empty empty height 0 -8 0 10 -262144
-1 -1 2;
#N canvas 604 428 450 300 charsize 0;
#X msg 203 180 29 33 \$1;
#X obj 100 77 t b b f;
#X obj 180 77 t b b f;
#X obj 123 104 f;
#X obj 203 104 f;
#X obj 123 128 << 4;
#X obj 203 155 +;
#X obj 203 128 t b f;
#X obj 100 53 inlet;
#X obj 180 53 inlet;
#X obj 203 204 outlet;
#X connect 0 0 10 0;
#X connect 1 0 4 0;
#X connect 1 1 3 0;
#X connect 1 2 3 1;
#X connect 2 0 3 0;
#X connect 2 1 4 0;
#X connect 2 2 4 1;
#X connect 3 0 5 0;
#X connect 4 0 7 0;
#X connect 5 0 6 0;
#X connect 6 0 0 0;
#X connect 7 0 6 0;
#X connect 7 1 6 1;
#X connect 8 0 1 0;
#X connect 9 0 2 0;
#X restore 286 170 pd charsize;
#X obj 191 245 tgl 15 0 empty empty white/black 17 7 0 10 -262144 -1
-1 0 1;
#X msg 191 265 29 66 \$1;
#X obj 286 246 tgl 15 0 empty empty turn_90° 17 7 0 10 -262144 -1
-1 0 1;
#X msg 286 266 27 86 \$1;
#X obj 191 202 hradio 15 1 0 3 empty empty underline 0 -8 0 10 -262144
-1 -1 1;
#X msg 191 222 27 45 \$1;
#X connect 0 0 1 0;
#X connect 3 0 2 0;
#X connect 4 0 2 0;
#X connect 5 0 2 0;
#X connect 6 0 7 0;
#X connect 7 0 2 0;
#X connect 9 0 13 4;
#X connect 10 0 13 7;
#X connect 11 0 13 0;
#X connect 12 0 13 1;
#X connect 13 0 2 0;
#X connect 14 0 2 0;
#X connect 15 0 14 0;
#X connect 16 0 17 0;
#X connect 17 0 2 0;
#X connect 18 0 20 0;
#X connect 19 0 20 1;
#X connect 20 0 2 0;
#X connect 21 0 22 0;
#X connect 22 0 2 0;
#X connect 23 0 24 0;
#X connect 24 0 2 0;
#X connect 25 0 26 0;
#X connect 26 0 2 0;
