#N canvas 83 75 493 539 12;
#X obj 16 83 r b;
#X floatatom 16 179 5 0 0 0 - - -, f 5;
#X obj 196 279 comport;
#X msg 146 187 devices;
#X msg 146 241 baud 19200;
#X obj 119 77 key;
#X floatatom 119 101 5 0 0 0 - - -, f 5;
#X msg 369 259 27 123 \$1;
#X obj 369 239 tgl 15 0 empty empty upside-down 17 7 0 10 -262144 -1
-1 0 1;
#X obj 275 159 hradio 15 1 0 3 empty empty justification 0 -8 0 10
-262144 -1 -1 1;
#X msg 275 179 27 97 \$1;
#X obj 369 189 hradio 15 1 0 5 empty empty width 0 -8 0 10 -262144
-1 -1 4;
#X obj 369 159 hradio 15 1 0 5 empty empty height 0 -8 0 10 -262144
-1 -1 4;
#N canvas 604 428 450 300 charsize 0;
#X msg 203 180 29 33 \$1;
#X obj 100 77 t b b f;
#X obj 180 77 t b b f;
#X obj 123 104 f;
#X obj 203 104 f;
#X obj 123 128 << 4;
#X obj 203 155 +;
#X obj 203 128 t b f;
#X obj 100 53 inlet;
#X obj 180 53 inlet;
#X obj 203 204 outlet;
#X connect 0 0 10 0;
#X connect 1 0 4 0;
#X connect 1 1 3 0;
#X connect 1 2 3 1;
#X connect 2 0 3 0;
#X connect 2 1 4 0;
#X connect 2 2 4 1;
#X connect 3 0 5 0;
#X connect 4 0 7 0;
#X connect 5 0 6 0;
#X connect 6 0 0 0;
#X connect 7 0 6 0;
#X connect 7 1 6 1;
#X connect 8 0 1 0;
#X connect 9 0 2 0;
#X restore 369 211 pd charsize;
#X obj 275 257 tgl 15 0 empty empty white/black 17 7 0 10 -262144 -1
-1 0 1;
#X msg 275 277 29 66 \$1;
#X obj 369 287 tgl 15 0 empty empty turn_90° 17 7 0 10 -262144 -1
-1 1 1;
#X msg 369 307 27 86 \$1;
#X obj 275 214 hradio 15 1 0 3 empty empty underline 0 -8 0 10 -262144
-1 -1 0;
#X msg 275 234 27 45 \$1;
#X obj 16 154 split 32 126;
#X floatatom 16 107 5 0 0 0 - - -, f 5;
#X obj 16 202 t b f;
#X msg 16 232 10;
#X obj 225 22 loadbang;
#X obj 227 119 unpack f f;
#X msg 227 95 1 4;
#X msg 146 214 open 0;
#X msg 272 372 27 51 \$1;
#X floatatom 272 350 5 0 0 2 line_spacing - -, f 5;
#X msg 322 350 32;
#X obj 225 48 t b b b;
#X connect 0 0 21 0;
#X connect 1 0 22 0;
#X connect 3 0 2 0;
#X connect 4 0 2 0;
#X connect 5 0 6 0;
#X connect 7 0 2 0;
#X connect 8 0 7 0;
#X connect 9 0 10 0;
#X connect 10 0 2 0;
#X connect 11 0 13 0;
#X connect 12 0 13 1;
#X connect 13 0 2 0;
#X connect 14 0 15 0;
#X connect 15 0 2 0;
#X connect 16 0 17 0;
#X connect 17 0 2 0;
#X connect 18 0 19 0;
#X connect 19 0 2 0;
#X connect 20 0 1 0;
#X connect 21 0 20 0;
#X connect 22 0 23 0;
#X connect 22 1 2 0;
#X connect 23 0 2 0;
#X connect 24 0 31 0;
#X connect 25 0 9 0;
#X connect 25 0 16 0;
#X connect 25 0 29 0;
#X connect 25 1 12 0;
#X connect 25 1 11 0;
#X connect 26 0 25 0;
#X connect 27 0 2 0;
#X connect 28 0 2 0;
#X connect 29 0 28 0;
#X connect 30 0 28 0;
#X connect 31 0 26 0;
#X connect 31 1 4 0;
#X connect 31 2 27 0;
