#N canvas 199 268 224 360 12;
#X obj 16 29 r b;
#X floatatom 16 179 5 0 0 0 - - -;
#X obj 116 275 comport;
#X msg 116 101 devices;
#X obj 63 29 key;
#X floatatom 63 53 5 0 0 0 - - -;
#X obj 16 155 split 32 126;
#X floatatom 16 53 5 0 0 0 - - -;
#X obj 16 202 t b f;
#X msg 16 232 10;
#X obj 116 43 loadbang;
#X msg 116 128 open 0;
#X msg 116 155 baud 9600;
#X obj 116 69 t b b;
#X obj 16 128 pipe;
#X floatatom 41 104 5 0 0 0 - - -;
#X obj 41 80 r pp;
#X connect 0 0 7 0;
#X connect 1 0 8 0;
#X connect 3 0 2 0;
#X connect 4 0 5 0;
#X connect 6 0 1 0;
#X connect 7 0 14 0;
#X connect 8 0 9 0;
#X connect 8 1 2 0;
#X connect 9 0 2 0;
#X connect 10 0 13 0;
#X connect 11 0 2 0;
#X connect 12 0 2 0;
#X connect 13 0 12 0;
#X connect 13 1 11 0;
#X connect 14 0 6 0;
#X connect 15 0 14 1;
#X connect 16 0 15 0;
